<svg width="88" height="67" viewBox="0 0 88 67" fill="none" xmlns="http://www.w3.org/2000/svg">
<path d="M28.3163 12.7321C29.4163 12.3321 30.0163 11.9321 30.6163 11.5321C31.0163 11.2321 31.4163 11.0321 31.9163 10.7321C32.2163 10.6321 32.6163 10.6321 32.9163 10.7321C33.2163 10.8321 33.4163 11.1321 33.5163 11.4321C35.6163 10.6321 44.6163 8.03207 53.4163 14.6321C53.8163 14.4321 54.3163 14.4321 54.9163 14.5321L55.5163 14.6321L55.7163 15.1321C55.9163 16.0321 57.1163 16.9321 58.4163 18.0321C59.4163 18.9321 60.6163 19.8321 61.8163 21.1321C63.8163 23.2321 66.1163 26.9321 67.3163 31.2321C68.4163 30.2321 69.1163 29.1321 69.3163 28.0321C69.4163 27.3321 69.3163 26.7321 69.0163 25.9321C68.8163 25.2321 68.6163 24.4321 68.5163 23.3321C68.4163 22.2321 68.7163 21.1321 68.9163 20.0321C69.1163 19.0321 69.4163 17.8321 69.2163 17.2321C69.0163 16.7321 68.4163 16.2321 67.6163 15.5321C66.7163 14.8321 65.6163 13.8321 64.6163 12.5321C63.3163 10.8321 63.0163 8.73207 62.7163 7.13207C62.6163 6.23207 62.4163 5.43207 62.2163 5.03207C61.4163 3.83207 59.3163 2.63207 56.9163 2.73207C54.9163 2.83207 53.7163 2.23207 52.5163 1.53207C51.8163 1.13207 51.0163 0.732072 50.0163 0.432072C46.8163 -0.667928 40.5163 0.632072 38.6163 1.03207C36.0163 1.63207 35.2163 2.63207 34.5163 3.73207C34.3163 3.93207 34.2163 4.13207 34.0163 4.43207C32.8163 5.83207 29.9163 7.93207 26.5163 7.93207C24.5163 7.93207 21.2163 13.8321 19.9163 16.0321C19.7163 16.4321 19.4163 16.8321 19.3163 17.1321C18.8163 17.9321 18.8163 18.7321 18.9163 19.3321C22.4163 14.9321 26.4163 13.4321 28.3163 12.7321Z" fill="#54C50A"/>
<path d="M35.1162 13.1321C35.2162 13.2321 35.3162 13.2321 35.4162 13.3321C35.9162 13.7321 36.5162 14.1321 36.9162 14.6321C37.2162 14.9321 37.5162 14.9321 38.2162 14.9321C38.9162 14.8321 39.9162 14.7321 40.9162 15.4321C42.0162 16.2321 42.3162 17.7321 42.6162 19.1321C42.8162 20.0321 42.9162 20.9321 43.3162 21.4321C43.6162 21.8321 44.1162 21.9321 44.6162 22.1321C44.9162 22.2321 45.4162 22.3321 45.8162 22.5321C45.9162 22.4321 46.1162 22.2321 46.3162 22.1321C47.1162 21.7321 47.8162 21.4321 48.4162 21.1321C49.3162 20.7321 50.2162 20.4321 50.9162 19.7321C51.7162 18.9321 51.7162 18.7321 51.7162 18.1321C51.7162 17.8321 51.7162 17.5321 51.7162 17.2321C51.8162 16.8321 51.9162 16.5321 52.0162 16.2321C45.1162 10.9321 37.8162 12.3321 35.1162 13.1321Z" fill="#54C50A"/>
<path d="M15.4163 29.6321C15.4163 29.5321 15.4163 29.5321 15.4163 29.4321C15.3163 22.1321 9.71628 18.3321 9.61628 18.3321C9.11628 18.0321 9.01628 17.4321 9.31628 16.9321C9.61628 16.4321 10.2163 16.3321 10.7163 16.6321C10.9163 16.7321 14.7163 19.3321 16.4163 24.3321C16.7163 23.4321 17.1163 22.6321 17.5163 21.7321C17.1163 21.0321 16.1163 18.8321 17.5163 16.4321C17.7163 16.1321 17.9163 15.7321 18.1163 15.3321C20.7163 10.7321 23.5163 6.13208 26.4163 6.13208C28.9163 6.13208 31.4163 4.53208 32.4163 3.33208C32.6163 3.13208 32.7163 2.93208 32.8163 2.73208C32.9163 2.53208 33.1163 2.33208 33.3163 2.13208C33.0163 1.63208 32.3163 1.03208 31.1163 1.43208C29.8163 1.93208 28.9163 2.53208 27.9163 3.33208C26.9163 4.13208 25.7163 5.03208 23.8163 5.73208C21.4163 6.63208 20.3163 6.43208 18.8163 6.13208C17.9163 5.93208 16.9163 5.73208 15.4163 5.73208C11.6163 5.73208 7.01628 8.63208 3.81628 13.0321C2.11628 15.3321 2.91628 18.4321 3.91628 21.1321C4.91629 23.9321 4.41629 27.4321 3.41628 29.5321C2.51629 31.4321 2.51628 33.1321 3.01628 33.4321C3.91628 33.9321 4.31628 34.8321 4.41628 35.6321C6.21628 34.9321 8.01628 34.6321 9.21628 34.3321L9.71628 34.2321C11.5163 33.8321 13.3163 34.7321 14.9163 35.4321C15.2163 35.5321 15.4163 35.6321 15.7163 35.7321C15.5163 34.6321 15.2163 32.3321 15.4163 29.6321Z" fill="#54C50A"/>
<path d="M67.9162 41.0321C68.6162 40.6321 69.7162 39.9321 70.5162 39.3321C72.1162 38.3321 73.8162 37.1321 75.4162 36.4321C79.0162 34.8321 82.2162 36.0321 83.3162 37.1321C83.5162 37.3321 83.7162 37.5321 83.8162 37.7321L83.9162 37.8321C85.0162 36.8321 86.6162 35.0321 86.6162 33.5321C86.6162 32.5321 86.1162 31.2321 85.7162 30.0321C85.5162 29.4321 85.3162 28.9321 85.1162 28.4321C84.9162 27.6321 85.0162 26.6321 85.2162 25.4321C85.4162 24.0321 85.6162 22.3321 85.2162 21.1321C84.4162 19.1321 83.1162 17.9321 80.8162 17.2321C80.3162 17.0321 79.8162 16.9321 79.4162 16.8321C77.7162 16.3321 76.3162 15.9321 74.8162 13.9321C73.0162 11.5321 71.6162 9.93206 69.7162 9.43206C68.5162 9.13206 66.6162 9.53206 65.3162 9.83206C65.5162 10.4321 65.8162 11.1321 66.2162 11.6321C67.1162 12.8321 68.1162 13.6321 68.9162 14.3321C69.9162 15.1321 70.7162 15.8321 71.1162 16.8321C71.5162 17.9321 71.2162 19.2321 70.9162 20.6321C70.7162 21.6321 70.5162 22.6321 70.5162 23.4321C70.5162 24.2321 70.7162 24.9321 70.9162 25.5321C71.2162 26.4321 71.4162 27.4321 71.2162 28.5321C70.8162 30.3321 69.7162 32.0321 67.7162 33.5321C68.2162 36.0321 68.3162 38.5321 67.9162 41.0321Z" fill="#54C50A"/>
<path d="M44.4162 33.7321C46.7162 31.8321 46.6163 30.6321 46.2163 29.8321C45.6163 28.4321 44.9163 26.3321 45.0163 24.6321C45.0163 24.5321 44.9162 24.4321 44.9162 24.3321C44.9162 24.2321 44.9162 24.2321 44.9162 24.2321C44.8162 24.1321 44.5163 24.0321 44.2163 24.0321C43.5163 23.8321 42.5163 23.6321 41.8162 22.6321C41.1162 21.7321 40.9163 20.6321 40.7163 19.5321C40.5163 18.5321 40.3162 17.4321 39.8162 17.1321C39.4163 16.8321 39.1163 16.9321 38.5163 16.9321C37.7163 17.0321 36.6163 17.1321 35.5163 16.1321C35.1163 15.7321 34.6162 15.3321 34.1162 15.0321C33.3162 14.4321 32.6162 13.8321 32.1162 13.1321C32.0162 13.2321 31.8163 13.3321 31.7163 13.4321C31.1163 13.8321 30.4162 14.3321 29.0162 14.8321C27.0162 15.5321 23.3162 16.9321 20.1162 21.7321C16.2162 27.4321 17.4162 34.3321 18.0162 36.5321C18.4162 36.3321 18.8162 36.1321 19.2162 35.8321C20.2162 35.2321 21.3163 34.5321 22.5163 34.7321H23.0163C25.0163 34.9321 27.3162 35.1321 28.6162 37.0321C29.4162 38.1321 29.9162 38.2321 30.6162 38.4321H30.7163C31.5163 38.6321 32.8162 39.2321 34.3162 40.0321L34.9162 40.3321C36.0162 40.8321 36.1163 42.1321 36.2163 43.3321C36.2163 43.6321 36.3162 44.2321 36.4162 44.4321C36.5162 44.4321 36.6162 44.4321 36.6162 44.3321C37.1162 44.1321 38.0163 43.8321 39.3162 44.3321C40.5163 44.7321 41.0163 45.6321 41.3162 46.3321C41.6162 46.9321 41.7163 47.1321 42.2163 47.2321C42.5163 47.3321 42.8163 47.3321 43.2163 47.2321C42.1163 45.7321 40.5162 43.1321 40.6162 40.8321C40.6162 36.8321 42.5162 35.2321 44.4162 33.7321ZM26.3162 25.5321C26.1162 25.6321 20.7162 27.6321 20.6162 33.3321C20.6162 33.8321 20.1162 34.4321 19.6162 34.4321C19.0162 34.4321 18.6162 33.8321 18.6162 33.2321C18.7162 26.1321 25.6162 23.6321 25.6162 23.6321C26.1162 23.4321 26.7162 23.7321 26.9162 24.2321C27.1162 24.7321 26.8162 25.3321 26.3162 25.5321Z" fill="#54C50A"/>
<path d="M55.3161 48.0321C55.6161 47.7321 56.0161 46.9321 56.3161 46.2321C57.2161 44.5321 58.2161 42.5321 60.0161 42.0321C60.7161 41.8321 61.2162 41.8321 61.6162 41.8321C61.7162 41.1321 61.8162 40.5321 61.8162 39.9321C60.6161 35.1321 56.0161 33.9321 55.9161 33.9321C55.4161 33.8321 55.0162 33.2321 55.2162 32.7321C55.3162 32.2321 55.9161 31.8321 56.4161 32.0321C56.6161 32.0321 59.6161 32.8321 61.9161 35.5321C61.2161 28.2321 57.1161 25.3321 56.9161 25.2321C56.4161 24.9321 56.3161 24.3321 56.6161 23.8321C56.9161 23.3321 57.5161 23.2321 58.0161 23.5321C58.3161 23.7321 64.8161 28.2321 63.9161 39.8321C63.9161 40.0321 63.9161 40.1321 63.9161 40.2321C63.8161 40.8321 63.8162 41.5321 63.6162 42.1321C63.7162 42.1321 63.7162 42.1321 63.8162 42.1321C64.6161 42.0321 64.9162 41.8321 65.2162 41.6321C65.3162 41.5321 65.4162 41.5321 65.6162 41.4321C67.5162 33.8321 63.5162 25.9321 60.3162 22.5321C59.2162 21.4321 58.1161 20.4321 57.1161 19.6321C55.7161 18.5321 54.6162 17.6321 54.0162 16.4321C53.9162 16.5321 53.8162 16.8321 53.7162 17.2321C53.7162 17.4321 53.7162 17.6321 53.7162 17.8321C53.7162 18.8321 53.6161 19.6321 52.3161 20.9321C51.3161 21.9321 50.2161 22.3321 49.1161 22.7321C48.5161 22.9321 47.9162 23.2321 47.3162 23.5321C46.6162 23.9321 46.9162 26.2321 48.0162 28.7321C49.3162 31.8321 46.5161 34.2321 45.6161 34.9321C43.6161 36.6321 42.5161 37.6321 42.4161 40.3321C42.3161 42.3321 44.2161 45.1321 45.3161 46.3321C46.5161 46.2321 47.8162 46.1321 49.2162 46.6321C50.5162 47.0321 51.2161 48.0321 51.8161 49.0321C51.9162 49.0321 51.9162 49.0321 52.0162 49.0321C52.6162 49.5321 54.3161 49.1321 55.3161 48.0321Z" fill="#54C50A"/>
<path d="M58.1162 57.2321C57.2162 56.0321 56.1162 54.7321 54.3162 54.6321C52.3162 54.5321 51.4162 52.8321 50.6162 51.4321C50.0162 50.3321 49.5162 49.3321 48.5162 48.9321C47.1162 48.4321 45.7162 48.6321 44.4162 48.8321C43.4162 49.0321 42.4162 49.1321 41.5162 48.9321C40.2162 48.6321 39.7162 47.7321 39.3162 47.0321C39.0162 46.4321 38.8162 46.1321 38.4162 46.0321C37.8162 45.8321 37.4162 45.9321 37.0162 46.0321C36.5162 46.2321 35.7162 46.4321 34.9162 45.8321C34.2162 45.2321 34.1162 44.2321 34.0162 43.2321C34.0162 42.7321 33.9162 42.0321 33.8162 41.8321L33.3162 41.6321C32.4162 41.1321 30.7162 40.3321 30.2162 40.2321H30.1162C29.2162 40.0321 28.1162 39.8321 26.9162 38.0321C26.2162 37.0321 24.5162 36.8321 22.8162 36.6321H22.3162C21.7162 36.6321 21.0162 37.0321 20.3162 37.4321C19.2162 38.1321 17.8162 38.9321 16.2162 38.4321C15.6162 38.2321 14.9162 37.9321 14.3162 37.6321C12.9162 37.0321 11.5162 36.3321 10.3162 36.5321L9.81618 36.6321C7.71618 37.0321 3.71618 37.8321 2.01618 39.9321C-0.383817 42.5321 -0.183816 43.4321 0.316184 44.1321C0.316184 44.2321 0.416184 44.2321 0.416184 44.3321C0.516184 44.3321 0.616184 44.2321 0.816184 44.2321C1.41618 44.0321 2.31618 43.7321 3.61618 43.8321C6.61618 44.0321 12.5162 48.3321 14.9162 51.5321C17.1162 54.4321 19.6162 57.5321 21.9162 58.2321C22.3162 58.3321 22.7162 58.5321 23.0162 58.6321C22.9162 58.0321 22.9162 57.3321 22.9162 56.6321C22.7162 55.8321 21.2162 48.5321 14.9162 44.3321C14.4162 44.0321 14.3162 43.4321 14.6162 42.9321C14.9162 42.4321 15.5162 42.3321 16.0162 42.6321C20.0162 45.3321 22.3162 49.0321 23.5162 51.9321C23.7162 51.3321 23.8162 50.7321 24.1162 50.0321C26.0162 44.9321 24.1162 40.6321 24.1162 40.5321C23.9162 40.0321 24.1162 39.4321 24.6162 39.2321C25.1162 39.0321 25.7162 39.2321 25.9162 39.7321C26.0162 39.9321 28.1162 44.8321 25.9162 50.7321C24.1162 55.4321 25.1162 59.4321 25.3162 60.2321C25.5162 60.5321 25.6162 60.8321 25.8162 61.1321C26.4162 62.2321 28.0162 63.2321 30.7162 62.6321C31.1162 62.4321 33.0162 61.7321 35.1162 61.7321C36.3162 61.7321 37.7162 61.9321 38.9162 62.7321C42.0162 64.6321 44.7162 66.1321 49.0162 66.1321C53.6162 66.1321 57.5162 64.7321 58.9162 63.3321C60.2162 62.0321 59.6162 58.9321 58.9162 58.0321C58.6162 57.7321 58.4162 57.5321 58.1162 57.2321ZM30.9162 52.6321C31.0162 52.5321 34.3162 50.0321 40.4162 49.7321C41.0162 49.7321 41.4162 50.1321 41.4162 50.7321C41.4162 51.3321 41.0162 51.7321 40.4162 51.7321C34.9162 51.9321 32.0162 54.1321 32.0162 54.1321C31.8162 54.2321 31.6162 54.3321 31.4162 54.3321C31.1162 54.3321 30.8162 54.2321 30.6162 53.9321C30.4162 53.6321 30.5162 52.9321 30.9162 52.6321ZM47.8162 59.2321C47.6162 59.6321 47.3162 59.8321 46.9162 59.8321C46.8162 59.8321 46.6162 59.8321 46.5162 59.7321C38.2162 56.2321 31.0162 58.9321 31.0162 58.9321C30.5162 59.1321 29.9162 58.9321 29.7162 58.3321C29.5162 57.8321 29.7162 57.2321 30.3162 57.0321C30.6162 56.9321 38.3162 53.9321 47.3162 57.8321C47.8162 58.1321 48.0162 58.7321 47.8162 59.2321Z" fill="#54C50A"/>
<path d="M87.4161 44.2321C87.3161 43.9321 87.2161 43.4321 87.1161 43.1321C86.7161 41.7321 86.4161 40.5321 85.8161 40.5321C85.1161 40.5321 84.5161 40.4321 84.0161 40.2321C83.5161 40.0321 83.1161 39.8321 82.8161 39.5321C82.6161 39.3321 82.4161 39.1321 82.2161 38.9321C82.1161 38.7321 81.9161 38.7321 81.8161 38.5321C81.2161 37.9321 78.9161 37.0321 76.1161 38.2321C74.7161 38.8321 73.0161 40.0321 71.5161 41.0321C69.2161 42.5321 67.9161 43.3321 67.0161 43.3321C66.8161 43.3321 66.7161 43.3321 66.6161 43.3321C66.5161 43.3321 66.4161 43.4321 66.3161 43.5321C65.9161 43.7321 65.4161 44.0321 64.2161 44.2321C63.0161 44.4321 62.4161 44.2321 61.9161 44.0321C61.5161 43.9321 61.3161 43.8321 60.5161 44.0321C59.6161 44.2321 58.7161 45.8321 58.1161 47.1321C57.7161 48.0321 57.2161 48.8321 56.8161 49.3321C55.9161 50.3321 54.3161 51.1321 53.0161 51.3321C53.5161 52.0321 53.9161 52.5321 54.5161 52.5321C57.3161 52.7321 58.8161 54.6321 59.8161 55.9321C60.0161 56.2321 60.2161 56.4321 60.4161 56.6321C60.8161 57.0321 61.1161 57.6321 61.3161 58.3321C69.7161 56.3321 71.0161 49.3321 71.1161 48.9321C71.2161 48.4321 71.7161 48.0321 72.2161 48.1321C72.7161 48.2321 73.1161 48.7321 73.0161 49.2321C73.0161 49.3321 71.5161 57.9321 61.6161 60.2321C61.6161 60.3321 61.6161 60.5321 61.6161 60.6321C62.5161 60.7321 64.2161 60.7321 66.3161 60.1321C69.8161 59.1321 72.5161 55.7321 73.8161 53.7321C75.4161 51.3321 78.1161 48.1321 79.8161 46.9321C81.3161 45.9321 84.5161 45.4321 85.8161 46.9321C85.9161 46.9321 85.9161 46.9321 86.2161 46.8321C86.9161 46.4321 87.6161 44.8321 87.4161 44.2321Z" fill="#54C50A"/>
</svg>
