<svg width="50" height="33" viewBox="0 0 50 33" fill="#FFFF00" xmlns="http://www.w3.org/2000/svg">
<path d="M37.4373 23.537C35.9665 23.537 34.7698 24.4952 34.7698 25.6728C34.7698 26.8506 35.9665 27.8087 37.4373 27.8087C38.9081 27.8087 40.1047 26.8505 40.1047 25.6728C40.1048 24.4952 38.9081 23.537 37.4373 23.537ZM37.4373 26.9722C36.5431 26.9722 35.8156 26.3893 35.8156 25.6729C35.8156 24.9566 36.5431 24.3738 37.4373 24.3738C38.3314 24.3738 39.0589 24.9566 39.0589 25.6729C39.0589 26.3893 38.3314 26.9722 37.4373 26.9722Z" fill="#FFFF00"/>
<path d="M23.0747 23.537C21.6039 23.537 20.4072 24.4952 20.4072 25.6728C20.4072 26.8506 21.6039 27.8087 23.0747 27.8087C24.5456 27.8087 25.7423 26.8505 25.7423 25.6728C25.7423 24.4952 24.5456 23.537 23.0747 23.537ZM23.0747 26.9722C22.1805 26.9722 21.4531 26.3893 21.4531 25.6729C21.4531 24.9566 22.1805 24.3738 23.0747 24.3738C23.969 24.3738 24.6964 24.9566 24.6964 25.6729C24.6964 26.3893 23.969 26.9722 23.0747 26.9722Z" fill="#FFFF00"/>
<path d="M7.62586 21.8534C6.16667 21.8534 4.97949 22.804 4.97949 23.9724C4.97949 25.1408 6.16656 26.0913 7.62586 26.0913C9.08515 26.0913 10.2722 25.1408 10.2722 23.9724C10.2722 22.804 9.08505 21.8534 7.62586 21.8534ZM7.62586 25.2546C6.74338 25.2546 6.02543 24.6794 6.02543 23.9724C6.02543 23.2654 6.74338 22.6902 7.62586 22.6902C8.50834 22.6902 9.22629 23.2654 9.22629 23.9724C9.22629 24.6794 8.50834 25.2546 7.62586 25.2546Z" fill="#FFFF00"/>
<path d="M46.5837 24.3825H49.476C49.7648 24.3825 49.999 24.1952 49.999 23.9641V19.491C50.1308 19.0847 37.3223 9.69156 37.1612 9.39643C37.0197 9.2872 36.8138 9.25062 36.628 9.30173C34.6742 10.1434 32.5112 8.84968 33.3677 7.24225C33.4637 7.07507 33.4119 6.8772 33.2401 6.7549L23.9362 0.135066C23.7936 0.0189976 23.5502 0.026348 23.3625 0.0222455C12.9345 -0.403823 2.7943 5.33524 0.027317 13.3899C-0.0324052 13.5257 0.0275307 28.4655 0.00701784 28.6046C0.00701784 28.8222 0.215565 29.0035 0.486612 29.0215L49.4327 32.2752C49.7275 32.3003 50.0056 32.096 49.9989 31.8583V27.3818C49.9989 27.1507 49.7647 26.9634 49.4759 26.9634H46.5836C45.6942 26.9634 44.9706 26.3846 44.9706 25.673C44.9707 24.9614 45.6943 24.3825 46.5837 24.3825ZM23.3234 0.858399L23.3814 0.860109L32.2745 7.18763C31.4151 9.23438 34.2613 11.1109 36.665 10.1762L47.9307 18.8788L18.7149 15.3064C17.3029 15.106 15.9057 16.0662 15.9397 17.213V20.0185C15.9397 20.5751 15.3736 21.0279 14.6778 21.0279C13.9821 21.0279 13.416 20.5751 13.416 20.0185V16.3728C13.416 15.3794 12.5251 14.5496 11.2977 14.3995C9.84153 14.1911 8.38811 15.1862 8.42539 16.3728V17.1524C8.42539 17.7091 7.85926 18.1619 7.16354 18.1619C6.46781 18.1619 5.90168 17.7091 5.90168 17.1524V15.729C5.86749 13.5621 3.29911 13.3613 1.2052 13.1654C4.2161 5.59489 13.2258 0.554126 23.3234 0.858399ZM29.3689 17.4556L33.798 17.9972C33.6076 18.8343 32.6924 19.4714 31.5932 19.4714C30.2609 19.4791 29.1928 18.5139 29.3689 17.4556ZM46.5837 27.8001H48.9531V31.4038L1.05285 28.2196L1.05264 13.9931C2.46268 14.2025 4.87005 14.1035 4.85595 15.729V17.1524C4.85595 18.1704 5.89121 18.9986 7.16364 18.9986C8.43618 18.9986 9.47133 18.1704 9.47133 17.1524V16.3728C9.45082 15.6834 10.2912 15.1061 11.1397 15.2266C11.8526 15.3138 12.3702 15.7957 12.3702 16.3728V20.0185C12.3702 21.0364 13.4054 21.8646 14.6778 21.8646C15.9504 21.8646 16.9855 21.0363 16.9855 20.0185V17.213C16.9663 16.5635 17.7573 16.0202 18.5569 16.1335L28.3351 17.3292C28.0574 18.8874 29.6281 20.3202 31.5931 20.3081C33.2154 20.3081 34.566 19.3625 34.8331 18.1238L48.953 19.8503V23.5458H46.5836C45.1175 23.5458 43.9248 24.5001 43.9248 25.673C43.9249 26.8459 45.1176 27.8001 46.5837 27.8001Z" fill="#FFFF00"/>
<path d="M12.8832 9.46412C14.3424 9.46412 15.5296 8.51361 15.5296 7.34515C15.5296 6.17668 14.3425 5.22626 12.8832 5.22626C11.4239 5.22626 10.2368 6.17677 10.2368 7.34515C10.2368 8.51352 11.424 9.46412 12.8832 9.46412ZM12.8832 6.06292C13.7657 6.06292 14.4836 6.63814 14.4836 7.34515C14.4836 8.05215 13.7657 8.62737 12.8832 8.62737C12.0007 8.62737 11.2828 8.05215 11.2828 7.34515C11.2828 6.63814 12.0007 6.06292 12.8832 6.06292Z" fill="#FFFF00"/>
<path d="M25.0048 12.5557C26.3574 12.5557 27.4578 11.6746 27.4578 10.5916C27.4578 9.50857 26.3574 8.62746 25.0048 8.62746C23.6521 8.62746 22.5518 9.50857 22.5518 10.5916C22.5518 11.6746 23.6521 12.5557 25.0048 12.5557ZM25.0048 9.46412C25.7807 9.46412 26.412 9.96993 26.412 10.5916C26.412 11.2133 25.7807 11.719 25.0048 11.719C24.2288 11.719 23.5976 11.2132 23.5976 10.5916C23.5976 9.96985 24.2288 9.46412 25.0048 9.46412Z" fill="#FFFF00"/>
</svg>
