<svg width="88" height="88" viewBox="0 0 88 88" fill="none" xmlns="http://www.w3.org/2000/svg">
<path d="M69.6209 47.5H52.6599C52.1239 47.5 51.6289 47.786 51.3609 48.25C51.0919 48.714 51.0919 49.286 51.3609 49.75L52.5309 51.776L46.4679 55.276L45.2979 53.25C45.0309 52.786 44.5359 52.5 43.9999 52.5C43.4639 52.5 42.9689 52.786 42.7009 53.25L34.2249 67.931C33.1479 69.796 33.0609 72.072 33.9949 74.019C34.9149 75.94 36.7139 77.28 38.8069 77.603C40.5149 77.866 42.2619 78 43.9999 78C57.9309 78 70.6749 69.274 75.7099 56.288C76.4729 54.321 76.2109 52.099 75.0109 50.346C73.7899 48.564 71.7749 47.5 69.6209 47.5ZM72.9129 55.204C68.3209 67.044 56.7019 75 43.9999 75C42.4139 75 40.8209 74.878 39.2649 74.638C38.1349 74.464 37.2009 73.765 36.7009 72.722C36.1879 71.653 36.2329 70.453 36.8239 69.43L43.9999 57L44.6209 58.075C45.0349 58.794 45.9529 59.038 46.6699 58.624L55.3299 53.624C55.6749 53.425 55.9259 53.098 56.0289 52.713C56.1319 52.329 56.0779 51.92 55.8789 51.575L55.2589 50.5H69.6209C70.8029 50.5 71.8639 51.062 72.5349 52.041C73.1859 52.991 73.3229 54.144 72.9129 55.204Z" fill="#FF0000"/>
<path d="M36.639 48.25C36.371 47.786 35.876 47.5 35.34 47.5H33V40.5H35.34C35.876 40.5 36.371 40.214 36.639 39.75C36.908 39.286 36.908 38.714 36.639 38.25L28.163 23.57C27.087 21.705 25.159 20.491 23.006 20.323C20.899 20.159 18.849 21.034 17.53 22.668C12.674 28.684 10 36.259 10 44C10 51.741 12.674 59.316 17.53 65.332C18.743 66.834 20.572 67.697 22.501 67.696C22.669 67.696 22.837 67.69 23.006 67.676C25.159 67.508 27.087 66.294 28.163 64.429L36.639 49.75C36.907 49.286 36.907 48.714 36.639 48.25ZM31.5 50.5H32.741L25.565 62.93C24.983 63.938 23.939 64.595 22.772 64.686C21.623 64.777 20.571 64.323 19.864 63.447C15.374 57.884 13 51.16 13 44C13 36.84 15.374 30.116 19.864 24.553C20.512 23.749 21.458 23.303 22.49 23.303C22.583 23.303 22.678 23.307 22.772 23.314C23.939 23.405 24.983 24.062 25.565 25.07L32.742 37.5H31.5C30.672 37.5 30 38.171 30 39V49C30 49.829 30.672 50.5 31.5 50.5Z" fill="#FF0000"/>
<path d="M43.9999 10C42.2619 10 40.5149 10.134 38.8069 10.397C36.7149 10.72 34.9149 12.06 33.9949 13.981C33.0609 15.928 33.1479 18.204 34.2249 20.069L42.7009 34.75C42.9689 35.214 43.4639 35.5 43.9999 35.5C44.5359 35.5 45.0309 35.214 45.2989 34.75L46.4689 32.724L52.5319 36.224L51.3619 38.25C51.0929 38.714 51.0929 39.286 51.3619 39.75C51.6299 40.214 52.1249 40.5 52.6609 40.5H69.6219C71.7759 40.5 73.7909 39.436 75.0119 37.654C76.2119 35.901 76.4739 33.679 75.7109 31.712C70.6749 18.726 57.9309 10 43.9999 10ZM72.5349 35.959C71.8639 36.938 70.8029 37.5 69.6209 37.5H55.2589L55.8789 36.425C56.0779 36.08 56.1319 35.671 56.0289 35.287C55.9249 34.903 55.6749 34.575 55.3299 34.376L46.6699 29.376C45.9539 28.962 45.0349 29.207 44.6209 29.925L43.9999 31L36.8229 18.569C36.2319 17.546 36.1869 16.346 36.6999 15.277C37.1999 14.234 38.1349 13.536 39.2639 13.361C40.8219 13.122 42.4139 13 43.9999 13C56.7019 13 68.3209 20.956 72.9129 32.796C73.3229 33.856 73.1859 35.009 72.5349 35.959Z" fill="#FF0000"/>
<path d="M44 0C19.738 0 0 19.738 0 44C0 68.262 19.738 88 44 88C68.262 88 88 68.262 88 44C88 19.738 68.262 0 44 0ZM44 85C21.393 85 3 66.607 3 44C3 21.393 21.393 3 44 3C66.607 3 85 21.393 85 44C85 66.607 66.607 85 44 85Z" fill="#FF0000"/>
<path d="M22.75 45.5C23.578 45.5 24.25 44.829 24.25 44C24.25 43.171 23.578 42.5 22.75 42.5H20.25C19.422 42.5 18.75 43.171 18.75 44C18.75 44.829 19.422 45.5 20.25 45.5H22.75Z" fill="#FF0000"/>
<path d="M23.519 49.858L21.17 50.713C20.391 50.997 19.989 51.858 20.274 52.636C20.496 53.245 21.071 53.623 21.683 53.623C21.854 53.623 22.027 53.594 22.196 53.532L24.545 52.677C25.324 52.393 25.726 51.532 25.441 50.754C25.157 49.977 24.293 49.577 23.519 49.858Z" fill="#FF0000"/>
<path d="M24.5439 35.322L22.1949 34.467C21.4219 34.185 20.5559 34.585 20.2729 35.363C19.9889 36.141 20.3899 37.002 21.1689 37.286L23.5179 38.141C23.6869 38.203 23.8599 38.232 24.0309 38.232C24.6429 38.232 25.2189 37.854 25.4399 37.245C25.7249 36.467 25.3229 35.606 24.5439 35.322Z" fill="#FF0000"/>
<path d="M56.625 22.133C55.908 21.718 54.99 21.963 54.576 22.682L53.326 24.847C52.912 25.564 53.157 26.482 53.875 26.896C54.111 27.033 54.369 27.098 54.624 27.098C55.142 27.098 55.646 26.829 55.924 26.348L57.174 24.183C57.588 23.465 57.343 22.547 56.625 22.133Z" fill="#FF0000"/>
<path d="M48.384 19.134C47.575 18.99 46.791 19.535 46.647 20.351L46.213 22.813C46.069 23.629 46.614 24.407 47.431 24.55C47.519 24.566 47.606 24.573 47.693 24.573C48.407 24.573 49.04 24.06 49.169 23.333L49.603 20.871C49.745 20.055 49.2 19.277 48.384 19.134Z" fill="#FF0000"/>
<path d="M61.229 27.585L59.314 29.192C58.679 29.724 58.596 30.671 59.128 31.305C59.425 31.659 59.85 31.841 60.278 31.841C60.618 31.841 60.961 31.726 61.241 31.49L63.156 29.883C63.791 29.351 63.874 28.404 63.342 27.77C62.811 27.136 61.863 27.052 61.229 27.585Z" fill="#FF0000"/>
<path d="M55.924 61.653C55.51 60.935 54.591 60.689 53.875 61.104C53.157 61.518 52.912 62.436 53.326 63.153L54.576 65.318C54.853 65.799 55.358 66.068 55.876 66.068C56.131 66.068 56.389 66.003 56.625 65.866C57.343 65.452 57.588 64.534 57.174 63.817L55.924 61.653Z" fill="#FF0000"/>
<path d="M61.242 56.51C60.608 55.976 59.661 56.06 59.129 56.695C58.597 57.33 58.68 58.276 59.315 58.808L61.23 60.415C61.51 60.651 61.853 60.766 62.193 60.766C62.622 60.766 63.047 60.584 63.343 60.23C63.875 59.595 63.792 58.649 63.157 58.117L61.242 56.51Z" fill="#FF0000"/>
<path d="M49.168 64.667C49.023 63.851 48.241 63.308 47.431 63.45C46.615 63.594 46.07 64.371 46.213 65.187L46.647 67.649C46.776 68.377 47.409 68.889 48.123 68.889C48.21 68.889 48.297 68.881 48.385 68.866C49.201 68.722 49.746 67.945 49.603 67.129L49.168 64.667Z" fill="#FF0000"/>
</svg>
